<svg xmlns="http://www.w3.org/2000/svg" width="34" height="34" viewBox="0 0 34 34" fill="none">
  <g clip-path="url(#clip0_1_170)">
    <path d="M18.4508 33.5L3.46606 18.8333L5.53567 16.8077L18.4508 29.4446L25.3202 22.721L12.4093 10.08L14.4789 8.05432L29.4636 22.721L18.4508 33.5Z" fill="white"/>
    <path d="M2.06838 13.4131L-0.00109863 15.4387L2.23689 17.6292L4.30637 15.6036L2.06838 13.4131Z" fill="white"/>
    <path d="M19.3539 25.9457L4.37329 11.279L15.3861 0.5L30.3666 15.1667L28.297 17.1923L15.3861 4.55134L8.51249 11.279L21.4235 23.9159L19.3539 25.9457Z" fill="white"/>
    <path d="M31.3192 16.097L29.2498 18.1225L31.9312 20.7471L34.0007 18.7215L31.3192 16.097Z" fill="white"/>
  </g>
  <defs>
    <clipPath id="clip0_1_170">
      <rect width="34" height="33" fill="white" transform="translate(0 0.5)"/>
    </clipPath>
  </defs>
</svg>